<mxfile host="Electron" agent="Mozilla/5.0 (X11; Linux x86_64) AppleWebKit/537.36 (KHTML, like Gecko) draw.io/24.7.8 Chrome/128.0.6613.162 Electron/32.1.2 Safari/537.36" version="24.7.8">
  <diagram name="Seite-1" id="fBoMxPjMkPOQJXqbSGyt">
    <mxGraphModel dx="972" dy="592" grid="1" gridSize="10" guides="1" tooltips="1" connect="1" arrows="1" fold="1" page="1" pageScale="1" pageWidth="827" pageHeight="1169" math="1" shadow="0">
      <root>
        <mxCell id="0" />
        <mxCell id="1" parent="0" />
        <mxCell id="lJPDis4I02J65k2MzY6k-1" value="&lt;b&gt;&lt;font color=&quot;#0066cc&quot;&gt;place&lt;/font&gt;&lt;/b&gt;&amp;nbsp;&lt;i&gt;&lt;font color=&quot;#debd58&quot;&gt;&lt;b&gt;in_num curr_num max_num&lt;/b&gt;&lt;/font&gt;&lt;/i&gt;" style="ellipse;whiteSpace=wrap;html=1;aspect=fixed;strokeWidth=3;" vertex="1" parent="1">
          <mxGeometry x="200" y="340" width="110" height="110" as="geometry" />
        </mxCell>
        <mxCell id="lJPDis4I02J65k2MzY6k-3" value="&lt;b&gt;&lt;font color=&quot;#0066cc&quot;&gt;trans&amp;nbsp;&lt;/font&gt;&lt;i&gt;&lt;font color=&quot;#debd58&quot;&gt;in_state&lt;/font&gt;&lt;font color=&quot;#0066cc&quot;&gt;&amp;nbsp;&lt;/font&gt;=&lt;/i&gt;&lt;/b&gt;&lt;div&gt;&lt;b&gt;&lt;i&gt;&amp;nbsp;&lt;font color=&quot;#97d077&quot;&gt;if&lt;/font&gt;&amp;nbsp;in_state&lt;/i&gt;&lt;/b&gt;&lt;/div&gt;&lt;div&gt;&lt;b&gt;&lt;i&gt;&lt;span style=&quot;white-space: pre;&quot;&gt;&#x9;&lt;/span&gt;&amp;nbsp;&lt;font color=&quot;#97d077&quot;&gt;then&lt;/font&gt;&amp;nbsp;1&lt;/i&gt;&lt;/b&gt;&lt;/div&gt;&lt;div&gt;&lt;b&gt;&lt;i&gt;&lt;span style=&quot;white-space: pre;&quot;&gt;&#x9;&lt;/span&gt;&amp;nbsp;&lt;font color=&quot;#97d077&quot;&gt;else&lt;/font&gt;&amp;nbsp;0&lt;/i&gt;&lt;/b&gt;&lt;/div&gt;" style="rounded=1;whiteSpace=wrap;html=1;strokeWidth=3;rotation=90;horizontal=0;" vertex="1" parent="1">
          <mxGeometry x="408.57" y="347.93" width="110" height="96" as="geometry" />
        </mxCell>
        <mxCell id="lJPDis4I02J65k2MzY6k-4" value="" style="endArrow=block;html=1;rounded=0;exitX=1;exitY=0.5;exitDx=0;exitDy=0;entryX=0.5;entryY=1;entryDx=0;entryDy=0;endFill=1;strokeWidth=2;fillColor=#fa6800;strokeColor=#C73500;" edge="1" parent="1" source="lJPDis4I02J65k2MzY6k-1" target="lJPDis4I02J65k2MzY6k-3">
          <mxGeometry width="50" height="50" relative="1" as="geometry">
            <mxPoint x="390" y="470" as="sourcePoint" />
            <mxPoint x="350" y="370" as="targetPoint" />
          </mxGeometry>
        </mxCell>
        <mxCell id="lJPDis4I02J65k2MzY6k-5" value="" style="endArrow=block;html=1;rounded=0;exitX=0.5;exitY=0;exitDx=0;exitDy=0;endFill=1;strokeWidth=2;fillColor=#fa6800;strokeColor=#C73500;" edge="1" parent="1" source="lJPDis4I02J65k2MzY6k-3" target="lJPDis4I02J65k2MzY6k-14">
          <mxGeometry width="50" height="50" relative="1" as="geometry">
            <mxPoint x="430" y="359.76" as="sourcePoint" />
            <mxPoint x="620" y="400" as="targetPoint" />
          </mxGeometry>
        </mxCell>
        <mxCell id="lJPDis4I02J65k2MzY6k-6" value="&lt;span style=&quot;color: rgb(0, 0, 0); font-family: Helvetica; font-size: 16px; font-style: normal; font-variant-ligatures: normal; font-variant-caps: normal; font-weight: 400; letter-spacing: normal; orphans: 2; text-align: center; text-indent: 0px; text-transform: none; widows: 2; word-spacing: 0px; -webkit-text-stroke-width: 0px; white-space: normal; background-color: rgb(251, 251, 251); text-decoration-thickness: initial; text-decoration-style: initial; text-decoration-color: initial; float: none; display: inline !important;&quot;&gt;$$P0$$&lt;/span&gt;" style="text;whiteSpace=wrap;html=1;fontSize=16;" vertex="1" parent="1">
          <mxGeometry x="240" y="286" width="45" height="50" as="geometry" />
        </mxCell>
        <mxCell id="lJPDis4I02J65k2MzY6k-7" value="&lt;span style=&quot;color: rgb(0, 0, 0); font-family: Helvetica; font-size: 16px; font-style: normal; font-variant-ligatures: normal; font-variant-caps: normal; font-weight: 400; letter-spacing: normal; orphans: 2; text-align: center; text-indent: 0px; text-transform: none; widows: 2; word-spacing: 0px; -webkit-text-stroke-width: 0px; white-space: normal; background-color: rgb(251, 251, 251); text-decoration-thickness: initial; text-decoration-style: initial; text-decoration-color: initial; float: none; display: inline !important;&quot;&gt;$$P1$$&lt;/span&gt;" style="text;whiteSpace=wrap;html=1;fontSize=16;" vertex="1" parent="1">
          <mxGeometry x="661" y="286" width="70" height="40" as="geometry" />
        </mxCell>
        <mxCell id="lJPDis4I02J65k2MzY6k-9" value="&lt;span style=&quot;color: rgb(0, 0, 0); font-family: Helvetica; font-size: 16px; font-style: normal; font-variant-ligatures: normal; font-variant-caps: normal; font-weight: 400; letter-spacing: normal; orphans: 2; text-align: center; text-indent: 0px; text-transform: none; widows: 2; word-spacing: 0px; -webkit-text-stroke-width: 0px; white-space: normal; background-color: rgb(251, 251, 251); text-decoration-thickness: initial; text-decoration-style: initial; text-decoration-color: initial; float: none; display: inline !important;&quot;&gt;$$T$$&lt;/span&gt;" style="text;whiteSpace=wrap;html=1;fontSize=16;" vertex="1" parent="1">
          <mxGeometry x="453.57" y="285" width="20" height="50" as="geometry" />
        </mxCell>
        <mxCell id="lJPDis4I02J65k2MzY6k-14" value="&lt;b&gt;&lt;font color=&quot;#0066cc&quot;&gt;place&lt;/font&gt;&lt;/b&gt;&amp;nbsp;&lt;i&gt;&lt;font color=&quot;#debd58&quot;&gt;&lt;b&gt;in_num curr_num max_num&lt;/b&gt;&lt;/font&gt;&lt;/i&gt;" style="ellipse;whiteSpace=wrap;html=1;aspect=fixed;strokeWidth=3;" vertex="1" parent="1">
          <mxGeometry x="620" y="340.93" width="110" height="110" as="geometry" />
        </mxCell>
        <mxCell id="lJPDis4I02J65k2MzY6k-16" value="&lt;b&gt;musical action (e.g. d1 $ s &quot;bd sd bd sd&quot;...)&lt;/b&gt;" style="shape=hexagon;perimeter=hexagonPerimeter2;whiteSpace=wrap;html=1;fixedSize=1;strokeWidth=3;fillColor=#6d8764;fontColor=#ffffff;strokeColor=#3A5431;" vertex="1" parent="1">
          <mxGeometry x="270" y="520" width="410" height="50" as="geometry" />
        </mxCell>
        <mxCell id="lJPDis4I02J65k2MzY6k-18" value="" style="shape=curlyBracket;whiteSpace=wrap;html=1;rounded=1;flipH=1;labelPosition=right;verticalLabelPosition=middle;align=left;verticalAlign=middle;strokeWidth=3;rotation=90;" vertex="1" parent="1">
          <mxGeometry x="453.57" y="270" width="20" height="420" as="geometry" />
        </mxCell>
        <mxCell id="lJPDis4I02J65k2MzY6k-19" value="&lt;div style=&quot;text-align: center;&quot;&gt;&lt;span style=&quot;background-color: initial;&quot;&gt;&lt;b style=&quot;&quot;&gt;&lt;font color=&quot;#0066cc&quot;&gt;linP &lt;/font&gt;&lt;i style=&quot;&quot;&gt;&lt;font color=&quot;#debd58&quot;&gt;b = &lt;/font&gt;&lt;font color=&quot;#0066cc&quot;&gt;place&lt;/font&gt;&lt;font color=&quot;#debd58&quot;&gt; (&lt;/font&gt;&lt;font color=&quot;#0066cc&quot;&gt;trans&lt;/font&gt;&lt;font color=&quot;#debd58&quot;&gt;&amp;nbsp;(&lt;/font&gt;&lt;font color=&quot;#0066cc&quot;&gt;place&lt;/font&gt;&lt;font color=&quot;#debd58&quot;&gt; b b 3)) b 4&lt;/font&gt;&lt;/i&gt;&lt;/b&gt;&lt;/span&gt;&lt;/div&gt;" style="text;whiteSpace=wrap;html=1;" vertex="1" parent="1">
          <mxGeometry x="355.36" y="489" width="216.43" height="40" as="geometry" />
        </mxCell>
      </root>
    </mxGraphModel>
  </diagram>
</mxfile>
